<svg xmlns="http://www.w3.org/2000/svg" width="53" height="53" viewBox="0 0 53 53">
  <defs>
    <style>
      .cls-1 {
      fill: #fff;
      fill-rule: evenodd;
      }
    </style>
  </defs>
  <path id="dashed.svg" class="cls-1"
        d="M51.5,53h-12a1.5,1.5,0,0,1,0-3H50V39.5a1.5,1.5,0,1,1,3,0v12A1.5,1.5,0,0,1,51.5,53Zm0-19A1.5,1.5,0,0,1,50,32.5v-13a1.5,1.5,0,0,1,3,0v13A1.5,1.5,0,0,1,51.5,34Zm0-20A1.5,1.5,0,0,1,50,12.5V3H39.5a1.5,1.5,0,0,1,0-3h12A1.5,1.5,0,0,1,53,1.5v11A1.5,1.5,0,0,1,51.5,14Zm-19,39h-13a1.5,1.5,0,1,1,0-3h13A1.5,1.5,0,0,1,32.5,53Zm0-50h-13a1.5,1.5,0,0,1,0-3h13A1.5,1.5,0,0,1,32.5,3Zm-20,50H1.5A1.5,1.5,0,0,1,0,51.5H0v-12a1.5,1.5,0,1,1,3,0V50h9.5A1.5,1.5,0,0,1,14,51.5h0A1.5,1.5,0,0,1,12.5,53Zm0-50H3v9.5a1.5,1.5,0,1,1-3,0V1.5A1.5,1.5,0,0,1,1.5,0h11A1.5,1.5,0,0,1,12.5,3ZM1.5,18A1.5,1.5,0,0,1,3,19.5v13a1.5,1.5,0,0,1-3,0v-13A1.5,1.5,0,0,1,1.5,18Z"/>
</svg>
